<svg id="Capa_1" enable-background="new 0 0 512 512" height="512" viewBox="0 0 512 512" width="512" xmlns="http://www.w3.org/2000/svg"><g><g><path d="m286 377.405h-60c-8.284 0-15 6.716-15 15v104.595h90v-104.595c0-8.284-6.716-15-15-15z" fill="#e2e2ea"/><g><path d="m301 392.405c0-8.284-6.716-15-15-15h-30v119.595h45z" fill="#c6d0da"/></g><g><g><g><g><path d="m256 410c-113.037 0-205-91.963-205-205s91.963-205 205-205 205 91.963 205 205-91.963 205-205 205z" fill="#ff6378"/></g></g></g><g><path d="m256 0v410c113.037 0 205-91.963 205-205s-91.963-205-205-205z" fill="#e20059"/></g><g><circle cx="256" cy="205" fill="#f1f4f6" r="175"/></g><g><path d="m256 30v350c96.495 0 175-78.505 175-175s-78.505-175-175-175z" fill="#e2e2ea"/></g><g><g><path d="m241 75v30c0 8.284 6.716 15 15 15s15-6.716 15-15v-30z" fill="#0a617d"/></g><path d="m271 105v-30h-15v45c8.284 0 15-6.716 15-15z" fill="#08475e"/><g><path d="m195.896 123.683-21.213-21.213-21.213 21.213 21.213 21.213c2.929 2.929 6.768 4.394 10.606 4.394s7.678-1.465 10.606-4.394c5.859-5.858 5.859-15.356.001-21.213z" fill="#0a617d"/></g><g><path d="m337.317 265.104c-5.857-5.857-15.355-5.857-21.213 0s-5.858 15.355 0 21.213l21.213 21.213 21.213-21.213z" fill="#08475e"/></g><g><path d="m156 190h-30v30h30c8.284 0 15-6.716 15-15s-6.716-15-15-15z" fill="#0a617d"/></g><g><path d="m356 190c-8.284 0-15 6.716-15 15s6.716 15 15 15h30v-30z" fill="#08475e"/></g><g><path d="m195.896 265.104c-5.857-5.857-15.355-5.857-21.213 0l-21.213 21.213 21.213 21.213 21.213-21.213c5.858-5.857 5.858-15.355 0-21.213z" fill="#0a617d"/></g><g><path d="m337.317 102.47-21.213 21.213c-5.858 5.857-5.858 15.355 0 21.213 2.929 2.929 6.768 4.394 10.606 4.394s7.678-1.465 10.606-4.394l21.213-21.213z" fill="#08475e"/></g></g><g><g><path d="m347.881 311.881c-3.839 0-7.678-1.465-10.606-4.394-5.858-5.857-5.858-15.355 0-21.213 21.747-21.749 33.725-50.612 33.725-81.274 0-63.411-51.589-115-115-115s-115 51.589-115 115c0 30.662 11.978 59.525 33.726 81.274 5.858 5.857 5.858 15.355 0 21.213-5.857 5.857-15.355 5.857-21.213 0-27.415-27.414-42.513-63.811-42.513-102.487 0-79.953 65.047-145 145-145s145 65.047 145 145c0 38.676-15.098 75.073-42.513 102.487-2.928 2.929-6.767 4.394-10.606 4.394z" fill="#0a617d"/></g></g><g><path d="m256 60v30c63.411 0 115 51.589 115 115 0 30.662-11.978 59.525-33.726 81.274-5.858 5.857-5.858 15.355 0 21.213 2.929 2.929 6.768 4.394 10.606 4.394s7.678-1.465 10.606-4.394c27.416-27.414 42.514-63.811 42.514-102.487 0-79.953-65.047-145-145-145z" fill="#08475e"/></g><g><g><circle cx="226" cy="325" fill="#ffe278" r="15"/></g></g><g><g><circle cx="286" cy="325" fill="#00a763" r="15"/></g></g><g><g><path d="m256 220c-3.839 0-7.678-1.465-10.606-4.394-5.858-5.857-5.858-15.355 0-21.213l35.355-35.355c5.857-5.857 15.355-5.857 21.213 0s5.858 15.355 0 21.213l-35.355 35.355c-2.929 2.929-6.768 4.394-10.607 4.394z" fill="#0a617d"/></g></g></g><g><path d="m316 512h-120c-8.284 0-15-6.716-15-15s6.716-15 15-15h120c8.284 0 15 6.716 15 15s-6.716 15-15 15z" fill="#f1f4f6"/></g></g><g><g><g><path d="m301.962 159.038c-5.857-5.857-15.355-5.857-21.213 0l-24.749 24.749v36.213c3.839 0 7.678-1.465 10.606-4.394l35.355-35.355c5.859-5.857 5.859-15.355.001-21.213z" fill="#08475e"/></g></g><g><path d="m316 482h-60v30h60c8.284 0 15-6.716 15-15s-6.716-15-15-15z" fill="#f1f4f6"/></g></g></g></svg>